<?xml version="1.0" encoding="UTF-8" standalone="no"?>
<svg
   xmlns:dc="http://purl.org/dc/elements/1.1/"
   xmlns:cc="http://creativecommons.org/ns#"
   xmlns:rdf="http://www.w3.org/1999/02/22-rdf-syntax-ns#"
   xmlns:svg="http://www.w3.org/2000/svg"
   xmlns="http://www.w3.org/2000/svg"
   xmlns:sodipodi="http://sodipodi.sourceforge.net/DTD/sodipodi-0.dtd"
   xmlns:inkscape="http://www.inkscape.org/namespaces/inkscape"
   height="256"
   version="1.0"
   viewBox="0 0 256 256"
   width="256"
   xml:space="preserve"
   id="svg70"
   sodipodi:docname="baby2.svg"
   inkscape:version="0.92pre1 unknown"><metadata
     id="metadata76"><rdf:RDF><cc:Work
         rdf:about=""><dc:format>image/svg+xml</dc:format><dc:type
           rdf:resource="http://purl.org/dc/dcmitype/StillImage" /><dc:title></dc:title></cc:Work></rdf:RDF></metadata><defs
     id="defs74" /><sodipodi:namedview
     pagecolor="#ffffff"
     bordercolor="#666666"
     borderopacity="1"
     objecttolerance="10"
     gridtolerance="10"
     guidetolerance="10"
     inkscape:pageopacity="0"
     inkscape:pageshadow="2"
     inkscape:window-width="1855"
     inkscape:window-height="1056"
     id="namedview72"
     showgrid="false"
     fit-margin-top="0"
     fit-margin-left="0"
     fit-margin-right="0"
     fit-margin-bottom="0"
     inkscape:zoom="6.0682618"
     inkscape:cx="55"
     inkscape:cy="54.999997"
     inkscape:window-x="65"
     inkscape:window-y="24"
     inkscape:window-maximized="1"
     inkscape:current-layer="svg70" /><g
     id="Artboard"
     transform="scale(2.3272727)"
     style="stroke-width:0.4296875" /><g
     id="Multicolor"
     transform="scale(2.3272727)"
     style="stroke-width:0.4296875"><circle
       cx="55"
       cy="55"
       r="55"
       style="fill:#25b7d3;stroke-width:0.18463135"
       id="circle3" /><g
       id="g67"
       style="stroke-width:0.4296875"><g
         id="g7"
         style="stroke-width:0.4296875"><path
           d="m 64,67 c 0,0 2.154,-6.949 5,-6 2.871,0.957 2.384,8.327 -0.586,14.218 C 68.1,75.84 67.628,76.373 67.046,76.756 62.403,79.815 53.195,79 45,79 37,79 31.942,62.993 64,67 Z"
           style="fill:#6fdaf1;stroke-width:0.4296875"
           id="path5"
           inkscape:connector-curvature="0" /></g><g
         id="g11"
         style="stroke-width:0.4296875"><path
           d="M 44.69,78.981 57.245,66.426 C 33.114,65.398 37.488,78.605 44.69,78.981 Z"
           style="fill:#9ce5f4;stroke-width:0.4296875"
           id="path9"
           inkscape:connector-curvature="0" /></g><path
         d="M 78.313,39 C 78.129,38.872 55.63,23.205 55.427,23.107 c 0,0 -10e-4,-10e-4 -0.002,-10e-4 -0.297,-0.141 -0.646,-0.138 -0.936,0.033 L 27.726,39 h 3.923 L 51.283,27.365 42.719,39 h 2.473 L 55,25.586 64.808,39 h 2.473 L 59.379,28.264 74.812,39 Z"
         style="fill:#f0f1f1;stroke-width:0.4296875"
         id="path13"
         inkscape:connector-curvature="0" /><g
         id="g17"
         style="stroke-width:0.4296875"><path
           d="m 87,43 c 0,1.105 -0.895,2 -2,2 H 25 c -1.105,0 -2,-0.895 -2,-2 v -2 c 0,-1.105 0.895,-2 2,-2 h 60 c 1.105,0 2,0.895 2,2 z"
           style="fill:#df2c2c;stroke-width:0.4296875"
           id="path15"
           inkscape:connector-curvature="0" /></g><g
         id="g21"
         style="stroke-width:0.4296875"><path
           d="m 35,51 v -6 h -2 v 6.437 C 33.614,51.166 34.285,51 35,51 Z"
           style="fill:#f0f1f1;stroke-width:0.4296875"
           id="path19"
           inkscape:connector-curvature="0" /></g><g
         id="g25"
         style="stroke-width:0.4296875"><path
           d="M 27,62.95 V 63 c 4.472,0 10.48,0 14.944,0 2.097,-2.05 0.894,-5.631 -2.056,-5.961 C 40.552,53.908 38.163,51 35,51 32.629,51 30.653,52.655 30.139,54.87 27.171,52.707 23,54.823 23,58.5 c 0,2.314 1.753,4.198 4,4.45 z"
           style="fill:#f0f1f1;stroke-width:0.4296875"
           id="path23"
           inkscape:connector-curvature="0" /></g><g
         id="g29"
         style="stroke-width:0.4296875"><path
           d="M 77,51.683 V 45 h -2 v 8 h 0.105 C 75.656,52.461 76.296,52.017 77,51.683 Z"
           style="fill:#f0f1f1;stroke-width:0.4296875"
           id="path27"
           inkscape:connector-curvature="0" /></g><g
         id="g33"
         style="stroke-width:0.4296875"><path
           d="m 83,63 c -2.761,0 -5,-2.239 -5,-5 0,-2.761 2.239,-5 5,-5 0.923,0 1.776,0.267 2.518,0.703 C 84.237,52.061 82.245,51 80,51 c -3.866,0 -7,3.134 -7,7 0,3.866 3.134,7 7,7 2.245,0 4.237,-1.061 5.518,-2.703 C 84.776,62.733 83.923,63 83,63 Z"
           style="fill:#fbe158;stroke-width:0.4296875"
           id="path31"
           inkscape:connector-curvature="0" /></g><g
         id="g37"
         style="stroke-width:0.4296875"><path
           d="M 56,66.374 V 45 h -2 v 21.366 c 0.645,-0.008 1.305,-0.009 2,0.008 z"
           style="fill:#f0f1f1;stroke-width:0.4296875"
           id="path35"
           inkscape:connector-curvature="0" /></g><g
         id="g41"
         style="stroke-width:0.4296875"><path
           d="m 49.386,78.374 c -0.281,-0.288 -0.363,-0.716 -0.206,-1.087 0.156,-0.371 0.519,-0.612 0.922,-0.612 2.374,0 5.817,0 7.129,0 0.3,0 0.586,0.135 0.776,0.368 0.915,1.123 2.457,2.947 2.901,4.355 0.2,0.635 0.072,1.328 -0.343,1.849 -0.415,0.521 -1.062,0.8 -1.726,0.746 -3.565,-0.288 -6.927,-3.034 -9.453,-5.619 z"
           style="fill:#9ce5f4;stroke-width:0.4296875"
           id="path39"
           inkscape:connector-curvature="0" /></g><g
         id="g45"
         style="stroke-width:0.4296875"><circle
           cx="46"
           cy="73"
           r="2"
           style="fill:#21b2d1;stroke-width:0.4296875"
           id="circle43" /></g><g
         id="g49"
         style="stroke-width:0.4296875"><circle
           cx="54"
           cy="73"
           r="2"
           style="fill:#21b2d1;stroke-width:0.4296875"
           id="circle47" /></g><g
         id="g53"
         style="stroke-width:0.4296875"><circle
           cx="62"
           cy="73"
           r="2"
           style="fill:#21b2d1;stroke-width:0.4296875"
           id="circle51" /></g><g
         id="g57"
         style="stroke-width:0.4296875"><path
           d="m 73,58 c 0,1.424 0.428,2.748 1.159,3.854 l 3.842,-3.842 C 78.001,58.007 78,58.004 78,58 c 0,-2.761 2.239,-5 5,-5 l 0.011,10e-4 0.839,-0.839 C 82.746,51.43 81.425,51 80,51 c -3.866,0 -7,3.134 -7,7 z"
           style="fill:#fbec9a;stroke-width:0.4296875"
           id="path55"
           inkscape:connector-curvature="0" /></g><g
         id="g61"
         style="stroke-width:0.4296875"><path
           d="M 30.139,54.87 C 27.17,52.707 23,54.823 23,58.5 c 0,1.859 1.14,3.424 2.749,4.104 L 36.951,51.402 C 36.354,51.148 35.698,51 35,51 c -2.371,0 -4.347,1.655 -4.861,3.87 z"
           style="fill:#ffffff;stroke-width:0.4296875"
           id="path59"
           inkscape:connector-curvature="0" /></g><g
         id="g65"
         style="stroke-width:0.4296875"><path
           d="M 55,39 H 25 c -1.104,0 -2,0.896 -2,2 v 2 c 0,1.104 0.896,2 2,2 h 30 z"
           style="fill:#fa5655;stroke-width:0.4296875"
           id="path63"
           inkscape:connector-curvature="0" /></g></g></g></svg>