<?xml version="1.0" encoding="UTF-8" standalone="no"?>
<!-- Created with Inkscape (http://www.inkscape.org/) -->

<svg
   xmlns:dc="http://purl.org/dc/elements/1.1/"
   xmlns:cc="http://creativecommons.org/ns#"
   xmlns:rdf="http://www.w3.org/1999/02/22-rdf-syntax-ns#"
   xmlns:svg="http://www.w3.org/2000/svg"
   xmlns="http://www.w3.org/2000/svg"
   xmlns:sodipodi="http://sodipodi.sourceforge.net/DTD/sodipodi-0.dtd"
   xmlns:inkscape="http://www.inkscape.org/namespaces/inkscape"
   version="1.1"
   id="svg2"
   xml:space="preserve"
   width="443.02496"
   height="420.76816"
   viewBox="0 0 443.02496 420.76816"
   sodipodi:docname="baby_background.svg"
   inkscape:version="0.92pre1 unknown"><metadata
     id="metadata8"><rdf:RDF><cc:Work
         rdf:about=""><dc:format>image/svg+xml</dc:format><dc:type
           rdf:resource="http://purl.org/dc/dcmitype/StillImage" /><dc:title /></cc:Work></rdf:RDF></metadata><defs
     id="defs6"><clipPath
       clipPathUnits="userSpaceOnUse"
       id="clipPath26"><path
         d="M 0,400 H 400 V 0 H 0 Z"
         id="path24"
         inkscape:connector-curvature="0" /></clipPath></defs><sodipodi:namedview
     pagecolor="#ffffff"
     bordercolor="#666666"
     borderopacity="1"
     objecttolerance="10"
     gridtolerance="10"
     guidetolerance="10"
     inkscape:pageopacity="0"
     inkscape:pageshadow="2"
     inkscape:window-width="2495"
     inkscape:window-height="1416"
     id="namedview4"
     showgrid="false"
     fit-margin-top="30"
     fit-margin-left="10"
     fit-margin-right="10"
     fit-margin-bottom="30"
     inkscape:zoom="0.88500003"
     inkscape:cx="190.48587"
     inkscape:cy="90.387891"
     inkscape:window-x="1985"
     inkscape:window-y="24"
     inkscape:window-maximized="1"
     inkscape:current-layer="g10" /><g
     id="g10"
     inkscape:groupmode="layer"
     inkscape:label="Baby 5"
     transform="matrix(1.3333333,0,0,-1.3333333,-67.37358,501.06459)"><path
       d="m 513.36917,-139.65055 h 347.26877 v 330.576 H 513.36917 Z"
       style="fill:#fffafc;fill-opacity:1;fill-rule:nonzero;stroke:none;stroke-width:1"
       id="path16"
       inkscape:connector-curvature="0" /><g
       id="g7297"
       style="opacity:0.15"><g
         style="opacity:1"
         transform="translate(11.096986,58.651284)"
         id="g6591"><path
           inkscape:connector-curvature="0"
           id="path222"
           style="fill:#76c7cb;fill-opacity:1;fill-rule:nonzero;stroke:none"
           d="m 136.6216,272.6982 c 0,0 3.667,18.993 20.43,21.35 16.76,2.357 31.952,-1.834 35.881,-19.906 3.928,-18.071 -1.048,-59.452 -14.93,-66 0,0 -25.143,-12.345 -35.357,11.899 -10.214,24.244 -6.834,46.858 -6.024,51.221" /><path
           inkscape:connector-curvature="0"
           id="path226"
           style="fill:#fff3f0;fill-opacity:1;fill-rule:nonzero;stroke:none"
           d="m 154.6729,233.8374 -2.702,1.376 -2.142,-2.143 0.473,2.994 -2.7,1.377 2.994,0.474 0.474,2.994 1.376,-2.701 2.995,0.474 -2.145,-2.145 z" /><path
           inkscape:connector-curvature="0"
           id="path230"
           style="fill:#fff3f0;fill-opacity:1;fill-rule:nonzero;stroke:none"
           d="m 168.5806,218.5684 -1.713,0.875 -1.36,-1.359 0.3,1.896 -1.713,0.874 1.9,0.302 0.3,1.898 0.873,-1.713 1.898,0.301 -1.358,-1.359 z" /><path
           inkscape:connector-curvature="0"
           id="path234"
           style="fill:#fff3f0;fill-opacity:1;fill-rule:nonzero;stroke:none"
           d="m 171.3486,235.1113 -1.29,0.657 -1.023,-1.023 0.225,1.431 -1.29,0.656 1.431,0.227 0.226,1.431 0.658,-1.293 1.429,0.228 -1.023,-1.023 z" /><path
           inkscape:connector-curvature="0"
           id="path238"
           style="fill:#fff3f0;fill-opacity:1;fill-rule:nonzero;stroke:none"
           d="m 191.7153,237.9341 -1.288,0.659 -1.025,-1.026 0.226,1.43 -1.291,0.659 1.431,0.225 0.226,1.431 0.659,-1.291 1.43,0.228 -1.024,-1.024 z" /><path
           inkscape:connector-curvature="0"
           id="path242"
           style="fill:#fff3f0;fill-opacity:1;fill-rule:nonzero;stroke:none"
           d="m 145.2524,246.5928 -1.685,0.858 -1.337,-1.336 0.296,1.866 -1.684,0.86 1.867,0.296 0.295,1.867 0.858,-1.684 1.869,0.294 -1.338,-1.335 z" /><path
           inkscape:connector-curvature="0"
           id="path246"
           style="fill:#fff3f0;fill-opacity:1;fill-rule:nonzero;stroke:none"
           d="m 141.9956,233.7788 -1.685,0.857 -1.335,-1.337 0.292,1.868 -1.682,0.857 1.867,0.298 0.296,1.867 0.858,-1.683 1.867,0.294 -1.337,-1.336 z" /><path
           inkscape:connector-curvature="0"
           id="path250"
           style="fill:#fff3f0;fill-opacity:1;fill-rule:nonzero;stroke:none"
           d="m 185.5522,251.8066 -1.684,0.86 -1.337,-1.338 0.295,1.868 -1.684,0.859 1.866,0.294 0.297,1.869 0.858,-1.685 1.868,0.296 -1.337,-1.336 z" /><path
           inkscape:connector-curvature="0"
           id="path254"
           style="fill:#fff3f0;fill-opacity:1;fill-rule:nonzero;stroke:none"
           d="m 183.4604,227.1758 -1.684,0.86 -1.337,-1.336 0.296,1.866 -1.685,0.858 1.867,0.294 0.296,1.87 0.858,-1.686 1.868,0.296 -1.337,-1.337 z" /><path
           inkscape:connector-curvature="0"
           id="path258"
           style="fill:#fff3f0;fill-opacity:1;fill-rule:nonzero;stroke:none"
           d="m 163.9565,239.9604 -1.684,0.858 -1.338,-1.337 0.296,1.868 -1.684,0.859 1.867,0.295 0.296,1.868 0.858,-1.685 1.866,0.297 -1.335,-1.337 z" /><path
           inkscape:connector-curvature="0"
           id="path262"
           style="fill:#fff3f0;fill-opacity:1;fill-rule:nonzero;stroke:none"
           d="m 156.6113,221.0493 -1.683,0.857 -1.337,-1.337 0.296,1.868 -1.685,0.857 1.867,0.297 0.296,1.868 0.857,-1.685 1.868,0.295 -1.337,-1.337 z" /><path
           inkscape:connector-curvature="0"
           id="path266"
           style="fill:#fcd5c4;fill-opacity:1;fill-rule:nonzero;stroke:none"
           d="m 183.0474,272.6436 c 0,-8.772 -7.916,-15.886 -17.682,-15.886 -9.765,0 -17.68,7.114 -17.68,15.886 0,8.774 7.915,15.887 17.68,15.887 9.766,0 17.682,-7.113 17.682,-15.887" /><path
           inkscape:connector-curvature="0"
           id="path270"
           style="fill:none;stroke:#756565;stroke-width:0.5;stroke-linecap:round;stroke-linejoin:round;stroke-miterlimit:10;stroke-dasharray:none;stroke-opacity:1"
           d="m 155.0859,276.5229 c 0,0 3.085,-3.879 6.99,0" /><path
           inkscape:connector-curvature="0"
           id="path274"
           style="fill:none;stroke:#756565;stroke-width:0.5;stroke-linecap:round;stroke-linejoin:round;stroke-miterlimit:10;stroke-dasharray:none;stroke-opacity:1"
           d="m 168.6567,276.5229 c 0,0 3.083,-3.879 6.989,0" /><path
           inkscape:connector-curvature="0"
           id="path278"
           style="fill:none;stroke:#756565;stroke-width:0.5;stroke-linecap:round;stroke-linejoin:round;stroke-miterlimit:10;stroke-dasharray:none;stroke-opacity:1"
           d="m 161.8203,267.1938 c 0,0 3.237,-3.464 7.092,0" /><path
           inkscape:connector-curvature="0"
           id="path282"
           style="fill:#f6b091;fill-opacity:1;fill-rule:nonzero;stroke:none"
           d="m 178.6079,271.2124 c 0,-1.492 -1.346,-2.702 -3.007,-2.702 -1.66,0 -3.006,1.21 -3.006,2.702 0,1.492 1.346,2.702 3.006,2.702 1.661,0 3.007,-1.21 3.007,-2.702" /><path
           inkscape:connector-curvature="0"
           id="path286"
           style="fill:#f6b091;fill-opacity:1;fill-rule:nonzero;stroke:none"
           d="m 158.0986,270.9341 c 0,-1.491 -1.345,-2.701 -3.005,-2.701 -1.661,0 -3.007,1.21 -3.007,2.701 0,1.493 1.346,2.702 3.007,2.702 1.66,0 3.005,-1.209 3.005,-2.702" /><path
           inkscape:connector-curvature="0"
           id="path290"
           style="fill:#756565;fill-opacity:1;fill-rule:nonzero;stroke:none"
           d="m 155.0933,285.5747 c 0,0 8.194,-1.201 10.273,1.483 0,0 5.31,-4.075 9.812,-1.196 0,0 -9.695,6.327 -20.085,-0.287" /></g><g
         style="opacity:1"
         transform="translate(102.17628,133.23871)"
         id="g6649"><path
           inkscape:connector-curvature="0"
           id="path406"
           style="fill:#f9c7c7;fill-opacity:1;fill-rule:nonzero;stroke:none"
           d="m 152.1353,82.6191 h 14.935 c 0,0 11.2,22.586 -5.975,24.826 0,0 -10.266,0.748 -11.947,-9.333 0,0 -0.934,-7.096 2.987,-15.493" /><path
           inkscape:connector-curvature="0"
           id="path410"
           style="fill:#425b61;fill-opacity:1;fill-rule:nonzero;stroke:none"
           d="m 179.083,78.5088 c 0,-2.268 -1.295,-4.104 -2.893,-4.104 h -32.669 c -1.597,0 -2.893,1.836 -2.893,4.104 0,2.272 1.296,4.11 2.893,4.11 h 32.669 c 1.598,0 2.893,-1.838 2.893,-4.11" /><path
           inkscape:connector-curvature="0"
           id="path414"
           style="fill:#425b61;fill-opacity:1;fill-rule:nonzero;stroke:none"
           d="m 159.8564,72.9717 c -5.629,0 -10.203,-4.573 -10.203,-10.197 0,-5.629 4.574,-10.207 10.203,-10.207 5.623,0 10.203,4.578 10.203,10.207 0,5.624 -4.58,10.197 -10.203,10.197 m 0,-24.253 c -7.754,0 -14.06,6.299 -14.06,14.056 0,7.751 6.306,14.055 14.06,14.055 7.752,0 14.053,-6.304 14.053,-14.055 0,-7.757 -6.301,-14.056 -14.053,-14.056" /></g><g
         style="opacity:1"
         transform="translate(-161.68356,33.373228)"
         id="g6747"><path
           inkscape:connector-curvature="0"
           id="path418"
           style="fill:#76c7cb;fill-opacity:1;fill-rule:nonzero;stroke:none"
           d="m 353.3047,55.7461 c 0,-3.53 -3.327,-6.397 -7.439,-6.397 h -16.502 c -4.108,0 -7.439,2.867 -7.439,6.397 v 32.581 c 0,3.53 3.331,6.397 7.439,6.397 h 16.502 c 4.112,0 7.439,-2.867 7.439,-6.397 z" /><path
           d="m 351.238,81.502 h -9.542 v 1.437 h 9.542 z"
           style="fill:#fff3f0;fill-opacity:1;fill-rule:nonzero;stroke:none"
           id="path420"
           inkscape:connector-curvature="0" /><path
           d="m 351.238,76.998 h -9.542 v 1.442 h 9.542 z"
           style="fill:#fff3f0;fill-opacity:1;fill-rule:nonzero;stroke:none"
           id="path422"
           inkscape:connector-curvature="0" /><path
           d="m 351.238,72.499 h -9.542 v 1.438 h 9.542 z"
           style="fill:#fff3f0;fill-opacity:1;fill-rule:nonzero;stroke:none"
           id="path424"
           inkscape:connector-curvature="0" /><path
           d="m 351.238,67.995 h -9.542 v 1.443 h 9.542 z"
           style="fill:#fff3f0;fill-opacity:1;fill-rule:nonzero;stroke:none"
           id="path426"
           inkscape:connector-curvature="0" /><path
           d="m 351.238,63.497 h -9.542 v 1.437 h 9.542 z"
           style="fill:#fff3f0;fill-opacity:1;fill-rule:nonzero;stroke:none"
           id="path428"
           inkscape:connector-curvature="0" /><path
           inkscape:connector-curvature="0"
           id="path432"
           style="fill:#e06c6c;fill-opacity:1;fill-rule:nonzero;stroke:none"
           d="m 353.3047,94.0869 c 0,-1.015 -1.035,-1.824 -2.319,-1.824 h -26.147 c -1.282,0 -2.319,0.809 -2.319,1.824 0,0.999 1.037,1.818 2.319,1.818 h 26.147 c 1.284,0 2.319,-0.819 2.319,-1.818" /><path
           inkscape:connector-curvature="0"
           id="path436"
           style="fill:#f9c7c7;fill-opacity:1;fill-rule:nonzero;stroke:none"
           d="m 325.8301,95.9053 c 0,0 0.905,10.954 11.784,11.291 0,0 10.047,1.583 11.545,-11.291 z" /><path
           inkscape:connector-curvature="0"
           id="path440"
           style="fill:#e06c6c;fill-opacity:1;fill-rule:nonzero;stroke:none"
           d="m 331.0527,105.1934 c 0,0 10.221,0.405 13.99,-0.225 0,0 0.63,1.531 -0.746,2.498 -0.078,0.051 -0.167,0.103 -0.26,0.158 -1.709,0.945 -11.255,0.417 -11.255,0.417 0,0 -3.374,-0.642 -1.729,-2.848" /><path
           inkscape:connector-curvature="0"
           id="path444"
           style="fill:#e06c6c;fill-opacity:1;fill-rule:nonzero;stroke:none"
           d="m 334.4863,107.377 c 0,0 2.8,11.075 6.812,-0.124" /></g><g
         style="opacity:1"
         transform="translate(105.28341,133.60826)"
         id="g6730"><path
           d="m 260.232,49.233 h -34.769 v 31.643 h 34.769 z"
           style="fill:#f9c7c7;fill-opacity:1;fill-rule:nonzero;stroke:none"
           id="path454"
           inkscape:connector-curvature="0" /><path
           d="m 262.046,81.764 h -38.394 v 8.888 h 38.394 z"
           style="fill:#f9c7c7;fill-opacity:1;fill-rule:nonzero;stroke:none"
           id="path456"
           inkscape:connector-curvature="0" /><path
           inkscape:connector-curvature="0"
           id="path460"
           style="fill:#f38889;fill-opacity:1;fill-rule:nonzero;stroke:none"
           d="m 243.1055,93.1396 c 0,0 3.198,23.109 15.997,7.999 0,0 4.442,-7.82 -5.511,-9.242 -9.954,-1.424 -7.288,-1.067 -7.288,-1.067 l -3.552,0.177 z" /><path
           inkscape:connector-curvature="0"
           id="path464"
           style="fill:#eaeae9;fill-opacity:1;fill-rule:nonzero;stroke:none"
           d="m 244.1699,92.6064 2.491,-0.178 c 0,0 12.266,8.71 7.997,8.71 0,0 -6.398,-1.065 -10.488,-8.532" /><path
           inkscape:connector-curvature="0"
           id="path468"
           style="fill:#f38889;fill-opacity:1;fill-rule:nonzero;stroke:none"
           d="m 242.3965,93.1396 c 0,0 -3.162,23.109 -15.813,7.999 0,0 -4.393,-7.82 5.448,-9.242 9.841,-1.424 7.203,-1.067 7.203,-1.067 l 3.516,0.177 z" /><path
           inkscape:connector-curvature="0"
           id="path472"
           style="fill:#eaeae9;fill-opacity:1;fill-rule:nonzero;stroke:none"
           d="m 241.3437,92.6064 -2.459,-0.178 c 0,0 -12.123,8.71 -7.907,8.71 0,0 6.324,-1.065 10.366,-8.532" /><path
           inkscape:connector-curvature="0"
           id="path476"
           style="fill:#e06c6c;fill-opacity:1;fill-rule:nonzero;stroke:none"
           d="m 229.0195,72.1807 c 0,-0.464 -0.376,-0.839 -0.839,-0.839 -0.361,0 -0.67,0.227 -0.788,0.548 -0.034,0.089 -0.052,0.188 -0.052,0.291 0,0.462 0.376,0.837 0.84,0.837 0.463,0 0.839,-0.375 0.839,-0.837" /><path
           inkscape:connector-curvature="0"
           id="path480"
           style="fill:#e06c6c;fill-opacity:1;fill-rule:nonzero;stroke:none"
           d="m 230.3223,72.1807 c 0,-0.464 -0.377,-0.839 -0.841,-0.839 -0.462,0 -0.838,0.375 -0.838,0.839 0,0.462 0.376,0.837 0.838,0.837 0.464,0 0.841,-0.375 0.841,-0.837" /><path
           inkscape:connector-curvature="0"
           id="path484"
           style="fill:#e06c6c;fill-opacity:1;fill-rule:nonzero;stroke:none"
           d="m 227.4902,71.7119 h 2.686 l -1.332,-1.539 z" /><path
           inkscape:connector-curvature="0"
           id="path488"
           style="fill:#e06c6c;fill-opacity:1;fill-rule:nonzero;stroke:none"
           d="m 235.3975,76.1396 c 0,-0.464 -0.375,-0.841 -0.84,-0.841 -0.36,0 -0.665,0.229 -0.788,0.55 -0.033,0.091 -0.051,0.189 -0.051,0.291 0,0.46 0.376,0.839 0.839,0.839 0.465,0 0.84,-0.379 0.84,-0.839" /><path
           inkscape:connector-curvature="0"
           id="path492"
           style="fill:#e06c6c;fill-opacity:1;fill-rule:nonzero;stroke:none"
           d="m 236.6992,76.1396 c 0,-0.464 -0.374,-0.841 -0.84,-0.841 -0.462,0 -0.837,0.377 -0.837,0.841 0,0.46 0.375,0.839 0.837,0.839 0.466,0 0.84,-0.379 0.84,-0.839" /><path
           inkscape:connector-curvature="0"
           id="path496"
           style="fill:#e06c6c;fill-opacity:1;fill-rule:nonzero;stroke:none"
           d="m 233.8672,75.6709 h 2.687 l -1.332,-1.538 z" /><path
           inkscape:connector-curvature="0"
           id="path500"
           style="fill:#e06c6c;fill-opacity:1;fill-rule:nonzero;stroke:none"
           d="m 229.0098,79.0479 c 0,-0.464 -0.374,-0.84 -0.837,-0.84 -0.362,0 -0.669,0.229 -0.788,0.55 -0.032,0.09 -0.051,0.187 -0.051,0.29 0,0.462 0.374,0.839 0.839,0.839 0.463,0 0.837,-0.377 0.837,-0.839" /><path
           inkscape:connector-curvature="0"
           id="path504"
           style="fill:#e06c6c;fill-opacity:1;fill-rule:nonzero;stroke:none"
           d="m 230.3125,79.0479 c 0,-0.464 -0.375,-0.84 -0.838,-0.84 -0.465,0 -0.839,0.376 -0.839,0.84 0,0.462 0.374,0.839 0.839,0.839 0.463,0 0.838,-0.377 0.838,-0.839" /><path
           inkscape:connector-curvature="0"
           id="path508"
           style="fill:#e06c6c;fill-opacity:1;fill-rule:nonzero;stroke:none"
           d="m 227.4814,78.5791 h 2.685 l -1.331,-1.538 z" /><path
           inkscape:connector-curvature="0"
           id="path512"
           style="fill:#e06c6c;fill-opacity:1;fill-rule:nonzero;stroke:none"
           d="m 233.5273,85.0469 c 0,-0.462 -0.374,-0.839 -0.838,-0.839 -0.362,0 -0.668,0.227 -0.786,0.549 -0.034,0.089 -0.052,0.186 -0.052,0.29 0,0.463 0.375,0.839 0.838,0.839 0.464,0 0.838,-0.376 0.838,-0.839" /><path
           inkscape:connector-curvature="0"
           id="path516"
           style="fill:#e06c6c;fill-opacity:1;fill-rule:nonzero;stroke:none"
           d="m 234.8301,85.0469 c 0,-0.462 -0.375,-0.839 -0.839,-0.839 -0.464,0 -0.838,0.377 -0.838,0.839 0,0.463 0.374,0.839 0.838,0.839 0.464,0 0.839,-0.376 0.839,-0.839" /><path
           inkscape:connector-curvature="0"
           id="path520"
           style="fill:#e06c6c;fill-opacity:1;fill-rule:nonzero;stroke:none"
           d="m 231.998,84.5762 h 2.686 l -1.332,-1.537 z" /><path
           inkscape:connector-curvature="0"
           id="path524"
           style="fill:#e06c6c;fill-opacity:1;fill-rule:nonzero;stroke:none"
           d="m 227.1406,87.9551 c 0,-0.461 -0.374,-0.839 -0.839,-0.839 -0.36,0 -0.666,0.229 -0.786,0.547 -0.034,0.092 -0.052,0.19 -0.052,0.292 0,0.463 0.375,0.839 0.838,0.839 0.465,0 0.839,-0.376 0.839,-0.839" /><path
           inkscape:connector-curvature="0"
           id="path528"
           style="fill:#e06c6c;fill-opacity:1;fill-rule:nonzero;stroke:none"
           d="m 228.4424,87.9551 c 0,-0.461 -0.374,-0.839 -0.837,-0.839 -0.465,0 -0.839,0.378 -0.839,0.839 0,0.463 0.374,0.839 0.839,0.839 0.463,0 0.837,-0.376 0.837,-0.839" /><path
           inkscape:connector-curvature="0"
           id="path532"
           style="fill:#e06c6c;fill-opacity:1;fill-rule:nonzero;stroke:none"
           d="m 225.6104,87.4854 h 2.685 l -1.331,-1.537 z" /><path
           inkscape:connector-curvature="0"
           id="path536"
           style="fill:#e06c6c;fill-opacity:1;fill-rule:nonzero;stroke:none"
           d="m 254.3125,84.8271 c 0,-0.465 -0.375,-0.838 -0.84,-0.838 -0.36,0 -0.666,0.225 -0.786,0.546 -0.034,0.093 -0.05,0.189 -0.05,0.292 0,0.463 0.373,0.838 0.836,0.838 0.465,0 0.84,-0.375 0.84,-0.838" /><path
           inkscape:connector-curvature="0"
           id="path540"
           style="fill:#e06c6c;fill-opacity:1;fill-rule:nonzero;stroke:none"
           d="m 255.6133,84.8271 c 0,-0.465 -0.373,-0.838 -0.838,-0.838 -0.463,0 -0.838,0.373 -0.838,0.838 0,0.463 0.375,0.838 0.838,0.838 0.465,0 0.838,-0.375 0.838,-0.838" /><path
           inkscape:connector-curvature="0"
           id="path544"
           style="fill:#e06c6c;fill-opacity:1;fill-rule:nonzero;stroke:none"
           d="m 252.7812,84.3574 h 2.685 l -1.331,-1.537 z" /><path
           inkscape:connector-curvature="0"
           id="path548"
           style="fill:#e06c6c;fill-opacity:1;fill-rule:nonzero;stroke:none"
           d="m 247.9248,87.7363 c 0,-0.466 -0.375,-0.84 -0.837,-0.84 -0.363,0 -0.669,0.229 -0.788,0.548 -0.032,0.09 -0.051,0.189 -0.051,0.292 0,0.461 0.373,0.837 0.839,0.837 0.462,0 0.837,-0.376 0.837,-0.837" /><path
           inkscape:connector-curvature="0"
           id="path552"
           style="fill:#e06c6c;fill-opacity:1;fill-rule:nonzero;stroke:none"
           d="m 249.2275,87.7363 c 0,-0.466 -0.375,-0.84 -0.837,-0.84 -0.466,0 -0.841,0.374 -0.841,0.84 0,0.461 0.375,0.837 0.841,0.837 0.462,0 0.837,-0.376 0.837,-0.837" /><path
           inkscape:connector-curvature="0"
           id="path556"
           style="fill:#e06c6c;fill-opacity:1;fill-rule:nonzero;stroke:none"
           d="m 246.3936,87.2656 h 2.687 l -1.332,-1.538 z" /><path
           inkscape:connector-curvature="0"
           id="path560"
           style="fill:#e06c6c;fill-opacity:1;fill-rule:nonzero;stroke:none"
           d="m 260.2412,87.7363 c 0,-0.466 -0.373,-0.84 -0.837,-0.84 -0.363,0 -0.669,0.229 -0.79,0.548 -0.033,0.09 -0.049,0.189 -0.049,0.292 0,0.461 0.375,0.837 0.839,0.837 0.464,0 0.837,-0.376 0.837,-0.837" /><path
           inkscape:connector-curvature="0"
           id="path564"
           style="fill:#e06c6c;fill-opacity:1;fill-rule:nonzero;stroke:none"
           d="m 261.5439,87.7363 c 0,-0.466 -0.375,-0.84 -0.838,-0.84 -0.465,0 -0.838,0.374 -0.838,0.84 0,0.461 0.373,0.837 0.838,0.837 0.463,0 0.838,-0.376 0.838,-0.837" /><path
           inkscape:connector-curvature="0"
           id="path568"
           style="fill:#e06c6c;fill-opacity:1;fill-rule:nonzero;stroke:none"
           d="m 258.7129,87.2656 h 2.685 l -1.33,-1.538 z" /><path
           inkscape:connector-curvature="0"
           id="path572"
           style="fill:#e06c6c;fill-opacity:1;fill-rule:nonzero;stroke:none"
           d="m 239.8975,88.0654 c 0,-0.464 -0.376,-0.84 -0.837,-0.84 -0.363,0 -0.672,0.229 -0.787,0.55 -0.034,0.09 -0.054,0.187 -0.054,0.29 0,0.462 0.377,0.839 0.841,0.839 0.461,0 0.837,-0.377 0.837,-0.839" /><path
           inkscape:connector-curvature="0"
           id="path576"
           style="fill:#e06c6c;fill-opacity:1;fill-rule:nonzero;stroke:none"
           d="m 241.2002,88.0654 c 0,-0.464 -0.379,-0.84 -0.839,-0.84 -0.464,0 -0.84,0.376 -0.84,0.84 0,0.462 0.376,0.839 0.84,0.839 0.46,0 0.839,-0.377 0.839,-0.839" /><path
           inkscape:connector-curvature="0"
           id="path580"
           style="fill:#e06c6c;fill-opacity:1;fill-rule:nonzero;stroke:none"
           d="m 238.3652,87.5967 h 2.685 l -1.33,-1.538 z" /><path
           inkscape:connector-curvature="0"
           id="path584"
           style="fill:#e06c6c;fill-opacity:1;fill-rule:nonzero;stroke:none"
           d="m 229.1221,58.9219 c 0,-0.462 -0.377,-0.836 -0.841,-0.836 -0.359,0 -0.67,0.225 -0.786,0.547 -0.035,0.091 -0.054,0.188 -0.054,0.289 0,0.466 0.378,0.84 0.84,0.84 0.464,0 0.841,-0.374 0.841,-0.84" /><path
           inkscape:connector-curvature="0"
           id="path588"
           style="fill:#e06c6c;fill-opacity:1;fill-rule:nonzero;stroke:none"
           d="m 230.4229,58.9219 c 0,-0.462 -0.376,-0.836 -0.839,-0.836 -0.462,0 -0.841,0.374 -0.841,0.836 0,0.466 0.379,0.84 0.841,0.84 0.463,0 0.839,-0.374 0.839,-0.84" /><path
           inkscape:connector-curvature="0"
           id="path592"
           style="fill:#e06c6c;fill-opacity:1;fill-rule:nonzero;stroke:none"
           d="m 227.5918,58.4541 h 2.684 l -1.332,-1.536 z" /><path
           inkscape:connector-curvature="0"
           id="path596"
           style="fill:#e06c6c;fill-opacity:1;fill-rule:nonzero;stroke:none"
           d="m 235.499,62.8818 c 0,-0.466 -0.374,-0.838 -0.84,-0.838 -0.358,0 -0.668,0.228 -0.787,0.546 -0.035,0.094 -0.051,0.19 -0.051,0.292 0,0.462 0.376,0.841 0.838,0.841 0.466,0 0.84,-0.379 0.84,-0.841" /><path
           inkscape:connector-curvature="0"
           id="path600"
           style="fill:#e06c6c;fill-opacity:1;fill-rule:nonzero;stroke:none"
           d="m 236.8008,62.8818 c 0,-0.466 -0.373,-0.838 -0.839,-0.838 -0.463,0 -0.84,0.372 -0.84,0.838 0,0.462 0.377,0.841 0.84,0.841 0.466,0 0.839,-0.379 0.839,-0.841" /><path
           inkscape:connector-curvature="0"
           id="path604"
           style="fill:#e06c6c;fill-opacity:1;fill-rule:nonzero;stroke:none"
           d="m 233.9697,62.4141 h 2.687 l -1.333,-1.537 z" /><path
           inkscape:connector-curvature="0"
           id="path608"
           style="fill:#e06c6c;fill-opacity:1;fill-rule:nonzero;stroke:none"
           d="m 229.2305,51.4463 c 0,-0.464 -0.376,-0.842 -0.837,-0.842 -0.363,0 -0.67,0.229 -0.788,0.551 -0.033,0.089 -0.052,0.188 -0.052,0.291 0,0.464 0.373,0.839 0.84,0.839 0.461,0 0.837,-0.375 0.837,-0.839" /><path
           inkscape:connector-curvature="0"
           id="path612"
           style="fill:#e06c6c;fill-opacity:1;fill-rule:nonzero;stroke:none"
           d="m 230.5332,51.4463 c 0,-0.464 -0.376,-0.842 -0.838,-0.842 -0.466,0 -0.841,0.378 -0.841,0.842 0,0.464 0.375,0.839 0.841,0.839 0.462,0 0.838,-0.375 0.838,-0.839" /><path
           inkscape:connector-curvature="0"
           id="path616"
           style="fill:#e06c6c;fill-opacity:1;fill-rule:nonzero;stroke:none"
           d="m 227.6982,50.9766 h 2.688 l -1.333,-1.537 z" /><path
           inkscape:connector-curvature="0"
           id="path620"
           style="fill:#e06c6c;fill-opacity:1;fill-rule:nonzero;stroke:none"
           d="m 235.6084,55.4043 c 0,-0.464 -0.376,-0.836 -0.837,-0.836 -0.363,0 -0.671,0.225 -0.788,0.545 -0.034,0.093 -0.053,0.188 -0.053,0.291 0,0.464 0.376,0.837 0.841,0.837 0.461,0 0.837,-0.373 0.837,-0.837" /><path
           inkscape:connector-curvature="0"
           id="path624"
           style="fill:#e06c6c;fill-opacity:1;fill-rule:nonzero;stroke:none"
           d="m 236.9131,55.4043 c 0,-0.464 -0.378,-0.836 -0.841,-0.836 -0.464,0 -0.84,0.372 -0.84,0.836 0,0.464 0.376,0.837 0.84,0.837 0.463,0 0.841,-0.373 0.841,-0.837" /><path
           inkscape:connector-curvature="0"
           id="path628"
           style="fill:#e06c6c;fill-opacity:1;fill-rule:nonzero;stroke:none"
           d="m 234.0801,54.9365 h 2.684 l -1.333,-1.539 z" /><path
           inkscape:connector-curvature="0"
           id="path632"
           style="fill:#e06c6c;fill-opacity:1;fill-rule:nonzero;stroke:none"
           d="m 229.1123,65.792 c 0,-0.465 -0.375,-0.841 -0.838,-0.841 -0.362,0 -0.669,0.229 -0.79,0.547 -0.029,0.092 -0.048,0.191 -0.048,0.294 0,0.461 0.374,0.837 0.838,0.837 0.463,0 0.838,-0.376 0.838,-0.837" /><path
           inkscape:connector-curvature="0"
           id="path636"
           style="fill:#e06c6c;fill-opacity:1;fill-rule:nonzero;stroke:none"
           d="m 230.4141,65.792 c 0,-0.465 -0.374,-0.841 -0.838,-0.841 -0.464,0 -0.839,0.376 -0.839,0.841 0,0.461 0.375,0.837 0.839,0.837 0.464,0 0.838,-0.376 0.838,-0.837" /><path
           inkscape:connector-curvature="0"
           id="path640"
           style="fill:#e06c6c;fill-opacity:1;fill-rule:nonzero;stroke:none"
           d="m 227.583,65.3232 h 2.686 l -1.331,-1.538 z" /><path
           inkscape:connector-curvature="0"
           id="path644"
           style="fill:#e06c6c;fill-opacity:1;fill-rule:nonzero;stroke:none"
           d="m 235.2725,69.1982 c 0,-0.461 -0.375,-0.836 -0.842,-0.836 -0.358,0 -0.668,0.227 -0.787,0.547 -0.035,0.091 -0.05,0.186 -0.05,0.289 0,0.464 0.376,0.841 0.837,0.841 0.467,0 0.842,-0.377 0.842,-0.841" /><path
           inkscape:connector-curvature="0"
           id="path648"
           style="fill:#e06c6c;fill-opacity:1;fill-rule:nonzero;stroke:none"
           d="m 236.5723,69.1982 c 0,-0.461 -0.372,-0.836 -0.839,-0.836 -0.461,0 -0.84,0.375 -0.84,0.836 0,0.464 0.379,0.841 0.84,0.841 0.467,0 0.839,-0.377 0.839,-0.841" /><path
           inkscape:connector-curvature="0"
           id="path652"
           style="fill:#e06c6c;fill-opacity:1;fill-rule:nonzero;stroke:none"
           d="m 233.7412,68.7305 h 2.687 l -1.333,-1.537 z" /><path
           inkscape:connector-curvature="0"
           id="path656"
           style="fill:#e06c6c;fill-opacity:1;fill-rule:nonzero;stroke:none"
           d="m 248.9248,72.1807 c 0,-0.464 -0.377,-0.839 -0.84,-0.839 -0.36,0 -0.668,0.227 -0.787,0.548 -0.034,0.089 -0.051,0.188 -0.051,0.291 0,0.462 0.376,0.837 0.838,0.837 0.463,0 0.84,-0.375 0.84,-0.837" /><path
           inkscape:connector-curvature="0"
           id="path660"
           style="fill:#e06c6c;fill-opacity:1;fill-rule:nonzero;stroke:none"
           d="m 250.2266,72.1807 c 0,-0.464 -0.376,-0.839 -0.841,-0.839 -0.461,0 -0.838,0.375 -0.838,0.839 0,0.462 0.377,0.837 0.838,0.837 0.465,0 0.841,-0.375 0.841,-0.837" /><path
           inkscape:connector-curvature="0"
           id="path664"
           style="fill:#e06c6c;fill-opacity:1;fill-rule:nonzero;stroke:none"
           d="m 247.3945,71.7119 h 2.685 l -1.331,-1.539 z" /><path
           inkscape:connector-curvature="0"
           id="path668"
           style="fill:#e06c6c;fill-opacity:1;fill-rule:nonzero;stroke:none"
           d="m 255.3027,76.1396 c 0,-0.464 -0.375,-0.841 -0.841,-0.841 -0.359,0 -0.668,0.229 -0.786,0.55 -0.034,0.091 -0.052,0.189 -0.052,0.291 0,0.46 0.376,0.839 0.838,0.839 0.466,0 0.841,-0.379 0.841,-0.839" /><path
           inkscape:connector-curvature="0"
           id="path672"
           style="fill:#e06c6c;fill-opacity:1;fill-rule:nonzero;stroke:none"
           d="m 256.6035,76.1396 c 0,-0.464 -0.373,-0.841 -0.84,-0.841 -0.461,0 -0.838,0.377 -0.838,0.841 0,0.46 0.377,0.839 0.838,0.839 0.467,0 0.84,-0.379 0.84,-0.839" /><path
           inkscape:connector-curvature="0"
           id="path676"
           style="fill:#e06c6c;fill-opacity:1;fill-rule:nonzero;stroke:none"
           d="m 253.7715,75.6709 h 2.688 l -1.332,-1.538 z" /><path
           inkscape:connector-curvature="0"
           id="path680"
           style="fill:#e06c6c;fill-opacity:1;fill-rule:nonzero;stroke:none"
           d="m 248.915,79.0479 c 0,-0.464 -0.373,-0.84 -0.839,-0.84 -0.361,0 -0.667,0.229 -0.788,0.55 -0.034,0.09 -0.049,0.187 -0.049,0.29 0,0.462 0.375,0.839 0.837,0.839 0.466,0 0.839,-0.377 0.839,-0.839" /><path
           inkscape:connector-curvature="0"
           id="path684"
           style="fill:#e06c6c;fill-opacity:1;fill-rule:nonzero;stroke:none"
           d="m 250.2178,79.0479 c 0,-0.464 -0.375,-0.84 -0.84,-0.84 -0.463,0 -0.836,0.376 -0.836,0.84 0,0.462 0.373,0.839 0.836,0.839 0.465,0 0.84,-0.377 0.84,-0.839" /><path
           inkscape:connector-curvature="0"
           id="path688"
           style="fill:#e06c6c;fill-opacity:1;fill-rule:nonzero;stroke:none"
           d="m 247.3857,78.5791 h 2.686 l -1.332,-1.538 z" /><path
           inkscape:connector-curvature="0"
           id="path692"
           style="fill:#e06c6c;fill-opacity:1;fill-rule:nonzero;stroke:none"
           d="m 249.0264,58.9219 c 0,-0.462 -0.376,-0.836 -0.841,-0.836 -0.358,0 -0.669,0.225 -0.785,0.547 -0.035,0.091 -0.054,0.188 -0.054,0.289 0,0.466 0.376,0.84 0.839,0.84 0.465,0 0.841,-0.374 0.841,-0.84" /><path
           inkscape:connector-curvature="0"
           id="path696"
           style="fill:#e06c6c;fill-opacity:1;fill-rule:nonzero;stroke:none"
           d="m 250.3291,58.9219 c 0,-0.462 -0.376,-0.836 -0.841,-0.836 -0.462,0 -0.842,0.374 -0.842,0.836 0,0.466 0.38,0.84 0.842,0.84 0.465,0 0.841,-0.374 0.841,-0.84" /><path
           inkscape:connector-curvature="0"
           id="path700"
           style="fill:#e06c6c;fill-opacity:1;fill-rule:nonzero;stroke:none"
           d="m 247.4941,58.4541 h 2.688 l -1.334,-1.536 z" /><path
           inkscape:connector-curvature="0"
           id="path704"
           style="fill:#e06c6c;fill-opacity:1;fill-rule:nonzero;stroke:none"
           d="m 255.4033,62.8818 c 0,-0.466 -0.376,-0.838 -0.84,-0.838 -0.358,0 -0.667,0.228 -0.786,0.546 -0.034,0.094 -0.051,0.19 -0.051,0.292 0,0.462 0.376,0.841 0.837,0.841 0.464,0 0.84,-0.379 0.84,-0.841" /><path
           inkscape:connector-curvature="0"
           id="path708"
           style="fill:#e06c6c;fill-opacity:1;fill-rule:nonzero;stroke:none"
           d="m 256.7061,62.8818 c 0,-0.466 -0.376,-0.838 -0.84,-0.838 -0.463,0 -0.839,0.372 -0.839,0.838 0,0.462 0.376,0.841 0.839,0.841 0.464,0 0.84,-0.379 0.84,-0.841" /><path
           inkscape:connector-curvature="0"
           id="path712"
           style="fill:#e06c6c;fill-opacity:1;fill-rule:nonzero;stroke:none"
           d="m 253.874,62.4141 h 2.687 l -1.331,-1.537 z" /><path
           inkscape:connector-curvature="0"
           id="path716"
           style="fill:#e06c6c;fill-opacity:1;fill-rule:nonzero;stroke:none"
           d="m 249.1357,51.4463 c 0,-0.464 -0.376,-0.842 -0.836,-0.842 -0.365,0 -0.671,0.229 -0.788,0.551 -0.034,0.089 -0.054,0.188 -0.054,0.291 0,0.464 0.374,0.839 0.842,0.839 0.46,0 0.836,-0.375 0.836,-0.839" /><path
           inkscape:connector-curvature="0"
           id="path720"
           style="fill:#e06c6c;fill-opacity:1;fill-rule:nonzero;stroke:none"
           d="m 250.4346,51.4463 c 0,-0.464 -0.374,-0.842 -0.835,-0.842 -0.466,0 -0.84,0.378 -0.84,0.842 0,0.464 0.374,0.839 0.84,0.839 0.461,0 0.835,-0.375 0.835,-0.839" /><path
           inkscape:connector-curvature="0"
           id="path724"
           style="fill:#e06c6c;fill-opacity:1;fill-rule:nonzero;stroke:none"
           d="m 247.6035,50.9766 h 2.686 l -1.331,-1.537 z" /><path
           inkscape:connector-curvature="0"
           id="path728"
           style="fill:#e06c6c;fill-opacity:1;fill-rule:nonzero;stroke:none"
           d="m 255.5137,55.4043 c 0,-0.464 -0.376,-0.836 -0.837,-0.836 -0.363,0 -0.671,0.225 -0.788,0.545 -0.033,0.093 -0.054,0.188 -0.054,0.291 0,0.464 0.377,0.837 0.842,0.837 0.461,0 0.837,-0.373 0.837,-0.837" /><path
           inkscape:connector-curvature="0"
           id="path732"
           style="fill:#e06c6c;fill-opacity:1;fill-rule:nonzero;stroke:none"
           d="m 256.8164,55.4043 c 0,-0.464 -0.379,-0.836 -0.84,-0.836 -0.463,0 -0.839,0.372 -0.839,0.836 0,0.464 0.376,0.837 0.839,0.837 0.461,0 0.84,-0.373 0.84,-0.837" /><path
           inkscape:connector-curvature="0"
           id="path736"
           style="fill:#e06c6c;fill-opacity:1;fill-rule:nonzero;stroke:none"
           d="m 253.9814,54.9365 h 2.685 l -1.331,-1.539 z" /><path
           inkscape:connector-curvature="0"
           id="path740"
           style="fill:#e06c6c;fill-opacity:1;fill-rule:nonzero;stroke:none"
           d="m 249.0176,65.792 c 0,-0.465 -0.375,-0.841 -0.841,-0.841 -0.359,0 -0.668,0.229 -0.786,0.547 -0.034,0.092 -0.052,0.191 -0.052,0.294 0,0.461 0.376,0.837 0.838,0.837 0.466,0 0.841,-0.376 0.841,-0.837" /><path
           inkscape:connector-curvature="0"
           id="path744"
           style="fill:#e06c6c;fill-opacity:1;fill-rule:nonzero;stroke:none"
           d="m 250.3184,65.792 c 0,-0.465 -0.373,-0.841 -0.84,-0.841 -0.461,0 -0.837,0.376 -0.837,0.841 0,0.461 0.376,0.837 0.837,0.837 0.467,0 0.84,-0.376 0.84,-0.837" /><path
           inkscape:connector-curvature="0"
           id="path748"
           style="fill:#e06c6c;fill-opacity:1;fill-rule:nonzero;stroke:none"
           d="m 247.4863,65.3232 h 2.688 l -1.333,-1.538 z" /><path
           inkscape:connector-curvature="0"
           id="path752"
           style="fill:#e06c6c;fill-opacity:1;fill-rule:nonzero;stroke:none"
           d="m 255.1748,69.1982 c 0,-0.461 -0.376,-0.836 -0.839,-0.836 -0.359,0 -0.668,0.227 -0.787,0.547 -0.034,0.091 -0.051,0.186 -0.051,0.289 0,0.464 0.376,0.841 0.838,0.841 0.463,0 0.839,-0.377 0.839,-0.841" /><path
           inkscape:connector-curvature="0"
           id="path756"
           style="fill:#e06c6c;fill-opacity:1;fill-rule:nonzero;stroke:none"
           d="m 256.4775,69.1982 c 0,-0.461 -0.376,-0.836 -0.841,-0.836 -0.462,0 -0.838,0.375 -0.838,0.836 0,0.464 0.376,0.841 0.838,0.841 0.465,0 0.841,-0.377 0.841,-0.841" /><path
           inkscape:connector-curvature="0"
           id="path760"
           style="fill:#e06c6c;fill-opacity:1;fill-rule:nonzero;stroke:none"
           d="m 253.6465,68.7305 h 2.686 l -1.334,-1.537 z" /><path
           d="m 245.232,49.173 h -5.155 V 91.72 h 5.155 z"
           style="fill:#f38889;fill-opacity:1;fill-rule:nonzero;stroke:none"
           id="path762"
           inkscape:connector-curvature="0" /></g><g
         style="opacity:1"
         transform="translate(293.52061,228.19824)"
         id="g6637"><path
           inkscape:connector-curvature="0"
           id="path766"
           style="fill:#f9c7c7;fill-opacity:1;fill-rule:nonzero;stroke:none"
           d="m 81.7783,80.2773 c 0,-15.004 -12.163,-27.168 -27.167,-27.168 -15.003,0 -27.166,12.164 -27.166,27.168 0,15.003 12.163,27.166 27.166,27.166 15.004,0 27.167,-12.163 27.167,-27.166" /><path
           inkscape:connector-curvature="0"
           id="path770"
           style="fill:#fff3f0;fill-opacity:1;fill-rule:nonzero;stroke:none"
           d="m 65.0278,100.7764 c 0,-3.682 -4.664,-6.667 -10.417,-6.667 -5.752,0 -10.416,2.985 -10.416,6.667 0,3.682 4.664,6.667 10.416,6.667 5.753,0 10.417,-2.985 10.417,-6.667" /><path
           inkscape:connector-curvature="0"
           id="path774"
           style="fill:#fff3f0;fill-opacity:1;fill-rule:nonzero;stroke:none"
           d="m 30.8164,92.3242 -0.94,0.34 c 2.26,6.264 13.885,9.753 14.379,9.898 l 0.283,-0.959 c -0.116,-0.034 -11.633,-3.49 -13.722,-9.279" /><path
           inkscape:connector-curvature="0"
           id="path778"
           style="fill:#fff3f0;fill-opacity:1;fill-rule:nonzero;stroke:none"
           d="m 34.2666,61.6318 c -4.372,19.028 12.121,34.881 12.289,35.039 l 0.687,-0.726 c -0.163,-0.155 -16.243,-15.626 -12.001,-34.088 z" /><path
           inkscape:connector-curvature="0"
           id="path782"
           style="fill:#fff3f0;fill-opacity:1;fill-rule:nonzero;stroke:none"
           d="m 59.5913,53.3711 -0.974,0.227 c 5.228,22.449 -1.37,40.446 -1.438,40.626 l 0.937,0.351 c 0.068,-0.182 6.774,-18.447 1.475,-41.204" /><path
           inkscape:connector-curvature="0"
           id="path786"
           style="fill:#fff3f0;fill-opacity:1;fill-rule:nonzero;stroke:none"
           d="m 80.7158,74.7422 c -0.384,16.139 -15.756,24.009 -15.912,24.087 l 0.447,0.894 c 0.161,-0.08 16.066,-8.208 16.465,-24.958 z" /></g><g
         style="opacity:1"
         transform="translate(233.65441,4.99166)"
         id="g6644"><path
           inkscape:connector-curvature="0"
           id="path790"
           style="fill:#427a81;fill-opacity:1;fill-rule:nonzero;stroke:none"
           d="m 121.0034,89.2832 c 0,-0.386 -0.312,-0.701 -0.699,-0.701 h -11.653 c -0.386,0 -0.699,0.315 -0.699,0.701 v 31.696 c 0,0.387 0.313,0.7 0.699,0.7 h 11.653 c 0.387,0 0.699,-0.313 0.699,-0.7 z" /><path
           inkscape:connector-curvature="0"
           id="path794"
           style="fill:#f6e4bb;fill-opacity:1;fill-rule:nonzero;stroke:none"
           d="m 116.9834,89.2832 c 0,-0.386 -0.12,-0.701 -0.268,-0.701 h -4.475 c -0.148,0 -0.268,0.315 -0.268,0.701 v 31.696 c 0,0.387 0.12,0.7 0.268,0.7 h 4.475 c 0.148,0 0.268,-0.313 0.268,-0.7 z" /><path
           inkscape:connector-curvature="0"
           id="path798"
           style="fill:#f9c7c7;fill-opacity:1;fill-rule:nonzero;stroke:none"
           d="m 120.6528,121.6924 -6.175,-0.007 -6.175,-0.006 3.082,5.351 3.082,5.352 3.093,-5.345 z" /><path
           inkscape:connector-curvature="0"
           id="path802"
           style="fill:#626a7a;fill-opacity:1;fill-rule:nonzero;stroke:none"
           d="m 116.4258,129.0117 -1.947,-0.003 -1.949,-0.003 0.973,1.689 0.972,1.688 0.975,-1.686 z" /><path
           inkscape:connector-curvature="0"
           id="path806"
           style="fill:#f9c7c7;fill-opacity:1;fill-rule:nonzero;stroke:none"
           d="m 107.9526,88.582 h 13.051 c 0,0 -6.525,-5.827 -13.051,0" /></g><g
         style="opacity:1"
         transform="translate(196.86749,151.14156)"
         id="g6603"><path
           inkscape:connector-curvature="0"
           id="path810"
           style="fill:#425b61;fill-opacity:1;fill-rule:nonzero;stroke:none"
           d="m 88.2788,159.1133 c -6.07,-6.949 -16.625,-7.663 -23.573,-1.593 -6.95,6.071 -7.663,16.623 -1.594,23.574 6.069,6.949 16.625,7.661 23.573,1.592 6.95,-6.068 7.662,-16.625 1.594,-23.573" /><path
           inkscape:connector-curvature="0"
           id="path814"
           style="fill:none;stroke:#f49291;stroke-width:1;stroke-linecap:butt;stroke-linejoin:miter;stroke-miterlimit:10;stroke-dasharray:none;stroke-opacity:1"
           d="m 60.1982,175.2344 22.726,-19.849" /><path
           inkscape:connector-curvature="0"
           id="path818"
           style="fill:none;stroke:#f49291;stroke-width:1;stroke-linecap:butt;stroke-linejoin:miter;stroke-miterlimit:10;stroke-dasharray:none;stroke-opacity:1"
           d="m 65.3857,182.7695 24.218,-21.152" /><path
           inkscape:connector-curvature="0"
           id="path822"
           style="fill:#f49291;fill-opacity:1;fill-rule:nonzero;stroke:none"
           d="m 67.9121,177.1865 c 0,-1.541 -1.25,-2.791 -2.792,-2.791 -1.541,0 -2.791,1.25 -2.791,2.791 0,1.542 1.25,2.792 2.791,2.792 1.542,0 2.792,-1.25 2.792,-2.792" /><path
           inkscape:connector-curvature="0"
           id="path826"
           style="fill:#f49291;fill-opacity:1;fill-rule:nonzero;stroke:none"
           d="m 76.2456,169.4014 c 0,-1.541 -1.25,-2.791 -2.792,-2.791 -1.541,0 -2.791,1.25 -2.791,2.791 0,1.542 1.25,2.792 2.791,2.792 1.542,0 2.792,-1.25 2.792,-2.792" /><path
           inkscape:connector-curvature="0"
           id="path830"
           style="fill:#f49291;fill-opacity:1;fill-rule:nonzero;stroke:none"
           d="m 85.2456,161.6172 c 0,-1.541 -1.25,-2.791 -2.792,-2.791 -1.541,0 -2.791,1.25 -2.791,2.791 0,1.542 1.25,2.792 2.791,2.792 1.542,0 2.792,-1.25 2.792,-2.792" /><path
           inkscape:connector-curvature="0"
           id="path834"
           style="fill:#f49291;fill-opacity:1;fill-rule:nonzero;stroke:none"
           d="m 50.2959,139.2627 c -0.143,-0.165 -0.368,-0.202 -0.503,-0.086 l -1.154,1.008 c -0.135,0.119 -0.127,0.347 0.017,0.513 l 15.729,18.008 c 0.142,0.163 0.368,0.201 0.503,0.084 l 1.153,-1.007 c 0.134,-0.121 0.128,-0.347 -0.016,-0.511 z" /><path
           inkscape:connector-curvature="0"
           id="path838"
           style="fill:#f49291;fill-opacity:1;fill-rule:nonzero;stroke:none"
           d="m 69.1616,154.2734 c -0.282,-0.324 -0.679,-0.441 -0.886,-0.26 l -7.422,6.484 c -0.207,0.179 -0.145,0.588 0.139,0.912 l 0.086,0.098 c 0.284,0.326 0.68,0.442 0.887,0.262 l 7.422,-6.484 c 0.207,-0.179 0.145,-0.587 -0.139,-0.911 z" /><path
           inkscape:connector-curvature="0"
           id="path842"
           style="fill:#f49291;fill-opacity:1;fill-rule:nonzero;stroke:none"
           d="m 67.1987,154.043 c -0.215,-0.247 -0.513,-0.334 -0.669,-0.196 l -5.608,4.896 c -0.157,0.137 -0.11,0.445 0.105,0.691 l 0.065,0.073 c 0.214,0.247 0.514,0.334 0.67,0.197 l 5.607,-4.897 c 0.155,-0.137 0.11,-0.444 -0.104,-0.69 z" /><path
           inkscape:connector-curvature="0"
           id="path846"
           style="fill:#f49291;fill-opacity:1;fill-rule:nonzero;stroke:none"
           d="m 49.4146,139.9082 c -2.462,2.151 -6.214,1.898 -8.365,-0.564 -2.15,-2.461 -1.896,-6.214 0.566,-8.365 2.462,-2.149 6.214,-1.895 8.365,0.566 2.149,2.462 1.896,6.214 -0.566,8.363 m -8.894,-10.183 c -3.152,2.756 -3.477,7.56 -0.724,10.713 2.755,3.154 7.56,3.477 10.713,0.725 3.153,-2.757 3.477,-7.561 0.724,-10.713 -2.755,-3.152 -7.56,-3.478 -10.713,-0.725" /></g><g
         style="opacity:1"
         transform="translate(-25.193475,3.103519)"
         id="g6735"><path
           inkscape:connector-curvature="0"
           id="path850"
           style="fill:#427a81;fill-opacity:1;fill-rule:nonzero;stroke:none"
           d="m 294.2422,89.7695 c -0.666,0 -1.329,0.16 -1.992,0.472 -7.307,3.46 -12.335,25.325 -12.546,26.257 l 0.928,0.209 c 0.05,-0.223 5.134,-22.345 12.023,-25.605 1.098,-0.523 2.15,-0.512 3.222,0.021 0.028,0.024 6.195,4.305 -6.86,28.581 l 0.836,0.453 c 13.606,-25.305 6.773,-29.69 6.475,-29.865 -0.694,-0.347 -1.391,-0.523 -2.086,-0.523" /><path
           inkscape:connector-curvature="0"
           id="path854"
           style="fill:#427a81;fill-opacity:1;fill-rule:nonzero;stroke:none"
           d="m 289.4521,93.6729 -0.896,0.323 c 0.037,0.1 0.91,2.464 3.304,3.419 1.74,0.698 3.804,0.457 6.124,-0.721 l -0.428,-0.846 c -2.063,1.044 -3.855,1.278 -5.334,0.686 -1.997,-0.787 -2.763,-2.84 -2.77,-2.861" /><path
           inkscape:connector-curvature="0"
           id="path858"
           style="fill:#76c7cb;fill-opacity:1;fill-rule:nonzero;stroke:none"
           d="m 277.9092,115.8906 c 0.17,-0.567 4.041,1.427 4.041,1.427 0,0 -0.832,5.345 2.376,5.345 0,0 2.257,-0.475 2.732,-3.386 0,0 3.327,0.417 3.566,1.96 0,0 -3.566,12.952 -9.862,10.931 -6.298,-2.018 -4.991,-9.029 -2.853,-16.277" /></g><g
         style="opacity:1"
         transform="translate(-73.001246,54.689695)"
         id="g6615"><path
           inkscape:connector-curvature="0"
           id="path862"
           style="fill:#82cfd3;fill-opacity:1;fill-rule:nonzero;stroke:none"
           d="m 136.8721,173.9277 c 0,0 11.972,12.326 17.704,12.326 0,0 2.697,-7.431 8.43,-7.431 0,0 3.853,-0.169 7.9,7.431 0,0 8.443,-1.938 17.885,-13.424 0,0 -6.357,-4.1 -7.406,-4.646 -0.613,-0.319 -1.765,1.111 -1.765,1.111 l -5.137,3.221 c 0,0 2.683,-16.574 2.856,-30.681 0.051,-0.449 -3.542,0.171 -6.071,-11.655 0,0 -3.901,-5.933 -18.737,-1.538 l -1.337,1.298 c 0,0 -0.664,8.515 -4.881,11.895 0,0 1.405,26.344 3.429,30.905 l -5.452,-4.385 z" /><path
           inkscape:connector-curvature="0"
           id="path866"
           style="fill:#425b61;fill-opacity:1;fill-rule:nonzero;stroke:none"
           d="m 146.4878,141.835 c 0,0 3.561,0.565 7.27,-8.725 0,0 0.75,-4.968 -1.053,-4.468 -2.011,0.552 -1.11,2.16 -2.374,6.596 -1.15,4.032 -3.843,6.597 -3.843,6.597" /><path
           inkscape:connector-curvature="0"
           id="path870"
           style="fill:#425b61;fill-opacity:1;fill-rule:nonzero;stroke:none"
           d="m 177.5122,141.835 c 0,0 -5.228,-1.096 -8.431,-10.074 0,0 -0.567,-3.015 0.431,-3.176 0.438,-0.07 1.93,1.595 1.93,1.595 0,0 0.862,1.346 1.855,3.802 1.383,3.423 3.036,6.921 4.215,7.853" /><path
           inkscape:connector-curvature="0"
           id="path874"
           style="fill:#425b61;fill-opacity:1;fill-rule:nonzero;stroke:none"
           d="m 154.7495,186.2539 c 0,0 -1.99,-0.133 -1.878,-0.345 0.111,-0.211 2.187,-4.885 5.263,-6.676 2.427,-1.413 4.17,-2.63 8.049,-0.616 0,0 3.823,2.619 5.84,7.26 l -1.117,0.377 c 0,0 -3.78,-6.965 -7.727,-7.432 0,0 -5.416,-0.174 -8.43,7.432" /><path
           inkscape:connector-curvature="0"
           id="path878"
           style="fill:#425b61;fill-opacity:1;fill-rule:nonzero;stroke:none"
           d="m 137.0454,173.9277 1.133,1.125 7.827,-5.654 -1.541,-1.044 z" /><path
           inkscape:connector-curvature="0"
           id="path882"
           style="fill:#425b61;fill-opacity:1;fill-rule:nonzero;stroke:none"
           d="m 180.1094,168.7539 c 0.079,-0.119 0.838,-0.89 0.838,-0.89 l 7.844,4.966 -1.081,1.283 z" /><path
           inkscape:connector-curvature="0"
           id="path886"
           style="fill:#708584;fill-opacity:1;fill-rule:nonzero;stroke:none"
           d="m 157.5469,132.167 c 0,-0.271 -0.219,-0.492 -0.49,-0.492 -0.269,0 -0.489,0.221 -0.489,0.492 0,0.271 0.22,0.489 0.489,0.489 0.271,0 0.49,-0.218 0.49,-0.489" /><path
           inkscape:connector-curvature="0"
           id="path890"
           style="fill:#708584;fill-opacity:1;fill-rule:nonzero;stroke:none"
           d="m 162.189,131.9346 c 0,-0.271 -0.22,-0.489 -0.49,-0.489 -0.27,0 -0.49,0.218 -0.49,0.489 0,0.271 0.22,0.492 0.49,0.492 0.27,0 0.49,-0.221 0.49,-0.492" /><path
           inkscape:connector-curvature="0"
           id="path894"
           style="fill:#708584;fill-opacity:1;fill-rule:nonzero;stroke:none"
           d="m 167.1738,131.9346 c 0,-0.271 -0.22,-0.489 -0.49,-0.489 -0.27,0 -0.49,0.218 -0.49,0.489 0,0.271 0.22,0.492 0.49,0.492 0.27,0 0.49,-0.221 0.49,-0.492" /><path
           inkscape:connector-curvature="0"
           id="path898"
           style="fill:#f38889;fill-opacity:1;fill-rule:nonzero;stroke:none"
           d="m 169.8574,170.9922 c 0,0 0.803,0.561 1.682,1.389 0.552,0.521 1.262,1.129 1.424,1.822 0.35,1.501 -0.745,2.13 -1.795,2.132 -1.01,0 -1.311,-0.943 -1.311,-0.943 0,0 -0.302,0.943 -1.311,0.943 -1.051,-0.002 -2.146,-0.631 -1.796,-2.132 0.162,-0.693 0.871,-1.301 1.424,-1.822 0.879,-0.828 1.683,-1.389 1.683,-1.389" /></g><g
         style="opacity:1"
         transform="translate(27.6123,54.245186)"
         id="g6571"><path
           inkscape:connector-curvature="0"
           id="path902"
           style="fill:#425b61;fill-opacity:1;fill-rule:nonzero;stroke:none"
           d="m 35.6343,269.8335 h 57.442 c 0,0 2.12,-1.585 0,-3.352 h -57.442 c 0,0 -2.12,1.995 0,3.352" /><path
           inkscape:connector-curvature="0"
           id="path906"
           style="fill:#517682;fill-opacity:1;fill-rule:nonzero;stroke:none"
           d="m 51.9473,224.3521 c 0,-1.157 -0.939,-2.097 -2.098,-2.097 -1.156,0 -2.097,0.94 -2.097,2.097 0,1.158 0.941,2.097 2.097,2.097 1.159,0 2.098,-0.939 2.098,-2.097" /><path
           d="m 50.115,212.517 h -0.529 v 23.669 h 0.529 z"
           style="fill:#517682;fill-opacity:1;fill-rule:nonzero;stroke:none"
           id="path908"
           inkscape:connector-curvature="0" /><path
           inkscape:connector-curvature="0"
           id="path912"
           style="fill:#517682;fill-opacity:1;fill-rule:nonzero;stroke:none"
           d="m 40.2637,217.3862 -0.301,0.435 19.474,13.496 0.302,-0.434 z" /><path
           inkscape:connector-curvature="0"
           id="path916"
           style="fill:#517682;fill-opacity:1;fill-rule:nonzero;stroke:none"
           d="m 59.521,217.165 -19.647,13.942 0.306,0.431 19.646,-13.942 z" /><path
           inkscape:connector-curvature="0"
           id="path920"
           style="fill:#76c7cb;fill-opacity:1;fill-rule:nonzero;stroke:none"
           d="m 56.2275,234.3823 -0.626,0.326 c 5.121,9.864 17.055,15.028 17.175,15.079 l 0.276,-0.65 c -0.117,-0.051 -11.822,-5.121 -16.825,-14.755" /><path
           inkscape:connector-curvature="0"
           id="path924"
           style="fill:#517682;fill-opacity:1;fill-rule:nonzero;stroke:none"
           d="m 76.6318,224.3521 c 0,-1.157 0.94,-2.097 2.099,-2.097 1.159,0 2.1,0.94 2.1,2.097 0,1.158 -0.941,2.097 -2.1,2.097 -1.159,0 -2.099,-0.939 -2.099,-2.097" /><path
           d="m 78.467,212.517 h 0.529 v 23.669 h -0.529 z"
           style="fill:#517682;fill-opacity:1;fill-rule:nonzero;stroke:none"
           id="path926"
           inkscape:connector-curvature="0" /><path
           inkscape:connector-curvature="0"
           id="path930"
           style="fill:#517682;fill-opacity:1;fill-rule:nonzero;stroke:none"
           d="m 88.3271,217.3862 0.303,0.435 -19.495,13.496 -0.304,-0.434 z" /><path
           inkscape:connector-curvature="0"
           id="path934"
           style="fill:#517682;fill-opacity:1;fill-rule:nonzero;stroke:none"
           d="m 69.0508,217.165 19.667,13.942 -0.307,0.431 -19.668,-13.942 z" /><path
           inkscape:connector-curvature="0"
           id="path938"
           style="fill:#76c7cb;fill-opacity:1;fill-rule:nonzero;stroke:none"
           d="m 72.3467,234.3823 0.627,0.326 c -5.127,9.864 -17.075,15.028 -17.194,15.079 l -0.278,-0.65 c 0.118,-0.051 11.835,-5.121 16.845,-14.755" /><path
           inkscape:connector-curvature="0"
           id="path942"
           style="fill:#76c7cb;fill-opacity:1;fill-rule:nonzero;stroke:none"
           d="m 49.8491,235.5054 c -6.149,0 -11.152,-5.004 -11.152,-11.154 0,-6.15 5.003,-11.153 11.152,-11.153 6.151,0 11.155,5.003 11.155,11.153 0,6.15 -5.004,11.154 -11.155,11.154 m 0,-23.719 c -6.928,0 -12.564,5.636 -12.564,12.565 0,6.929 5.636,12.566 12.564,12.566 6.93,0 12.568,-5.637 12.568,-12.566 0,-6.929 -5.638,-12.565 -12.568,-12.565" /><path
           inkscape:connector-curvature="0"
           id="path946"
           style="fill:#76c7cb;fill-opacity:1;fill-rule:nonzero;stroke:none"
           d="m 78.731,235.5054 c -6.158,0 -11.168,-5.004 -11.168,-11.154 0,-6.15 5.01,-11.153 11.168,-11.153 6.157,0 11.166,5.003 11.166,11.153 0,6.15 -5.009,11.154 -11.166,11.154 m 0,-23.719 c -6.936,0 -12.579,5.636 -12.579,12.565 0,6.929 5.643,12.566 12.579,12.566 6.936,0 12.578,-5.637 12.578,-12.566 0,-6.929 -5.642,-12.565 -12.578,-12.565" /><path
           inkscape:connector-curvature="0"
           id="path950"
           style="fill:#76c7cb;fill-opacity:1;fill-rule:nonzero;stroke:none"
           d="m 68.4033,296.6724 v -26.839 h 24.837 c 0,0 1.531,24.367 -24.837,26.839" /><path
           inkscape:connector-curvature="0"
           id="path954"
           style="fill:#76c7cb;fill-opacity:1;fill-rule:nonzero;stroke:none"
           d="m 35.5005,266.4819 h 57.679 c 0,0 1.648,-17.301 -19.011,-17.654 -20.657,-0.354 -23.13,0 -23.13,0 0,0 -7.063,-0.354 -12.713,7.945 0,0 -2.766,3.764 -2.825,9.709" /><path
           inkscape:connector-curvature="0"
           id="path958"
           style="fill:#425b61;fill-opacity:1;fill-rule:nonzero;stroke:none"
           d="m 41.2505,268.1577 c -0.201,0 -0.4,0.083 -0.546,0.244 l -2.532,2.825 c -1.968,0.489 -7.289,2.012 -7.724,4.278 -0.103,0.543 0.004,1.353 1.11,2.133 4.097,2.893 12.251,-1.371 12.597,-1.554 0.056,-0.03 0.109,-0.068 0.157,-0.112 l 6.514,-6.1 c 0.294,-0.276 0.309,-0.739 0.031,-1.034 -0.274,-0.295 -0.737,-0.31 -1.033,-0.034 l -6.442,6.032 c -2.203,1.147 -8.223,3.552 -10.981,1.605 -0.171,-0.119 -0.562,-0.424 -0.514,-0.66 0.184,-0.966 3.69,-2.426 6.851,-3.185 0.143,-0.035 0.274,-0.112 0.374,-0.223 l 2.683,-2.994 c 0.269,-0.301 0.245,-0.764 -0.058,-1.033 -0.139,-0.126 -0.313,-0.188 -0.487,-0.188" /></g><g
         style="opacity:1"
         transform="translate(-241.84227,-41.39986)"
         id="g6629"><path
           inkscape:connector-curvature="0"
           id="path448"
           style="fill:#427a81;fill-opacity:1;fill-rule:nonzero;stroke:none"
           d="m 321.7822,181.2354 c 0,0 21.468,-11.634 25.483,-11.634 0,0 -9.834,-12.601 -6.094,-19.113 0,0 3.048,-5.122 6.649,-8.587 0,0 4.985,-5.122 1.108,-10.526 0,0 -4.294,-5.815 -12.742,-1.8 0,0 -5.402,4.153 -8.726,7.48 -3.324,3.323 -11.356,5.957 -13.988,10.387 0,0 -2.354,6.927 1.385,12.604 3.738,5.679 4.154,6.925 4.986,11.909 0.831,4.988 1.939,9.28 1.939,9.28" /><path
           inkscape:connector-curvature="0"
           id="path452"
           style="fill:#f9c7c7;fill-opacity:1;fill-rule:nonzero;stroke:none"
           d="m 346.6846,143.0674 c 0,0 -14.132,-4.544 -7.997,-14.439 0,0 6.289,-2.149 10.24,2.747 0,0 4.989,5.039 -2.243,11.692" /><path
           inkscape:connector-curvature="0"
           id="path1022"
           style="fill:#f9c7c7;fill-opacity:1;fill-rule:nonzero;stroke:none"
           d="m 322.751,182.999 c 0,0 -1.687,0.057 -0.969,-1.764 0.719,-1.82 21.219,-12.016 25.552,-11.46 0,0 1.583,-0.36 0.833,1.39 -0.75,1.75 -23.582,11.501 -25.416,11.834" /></g><g
         style="opacity:1"
         transform="translate(-62.434882,54.075538)"
         id="g6624"><path
           inkscape:connector-curvature="0"
           id="path1026"
           style="fill:#fff3f0;fill-opacity:1;fill-rule:nonzero;stroke:none"
           d="m 223.1387,168.46 c 0,0 -2.584,-33.961 15.706,-33.961 0,0 18.207,-1.833 15.226,34.351 0,0 -14.667,-13.781 -30.348,-0.772" /><path
           inkscape:connector-curvature="0"
           id="path1030"
           style="fill:none;stroke:#5b8589;stroke-width:2;stroke-linecap:round;stroke-linejoin:round;stroke-miterlimit:10;stroke-dasharray:none;stroke-opacity:1"
           d="m 219.2432,179.0049 c 0,0 -0.456,-9.813 9.634,-14.223 10.09,-4.408 17.039,-1.172 18.23,-0.637 1.193,0.533 10.382,3.769 10.382,14.86" /><path
           inkscape:connector-curvature="0"
           id="path1034"
           style="fill:none;stroke:#427a81;stroke-width:0.5;stroke-linecap:round;stroke-linejoin:round;stroke-miterlimit:4;stroke-dasharray:none;stroke-opacity:1"
           d="m 223.8867,167.5879 c 0,0 -0.008,-0.36 -0.009,-0.996" /><path
           inkscape:connector-curvature="0"
           id="path1038"
           style="fill:none;stroke:#427a81;stroke-width:0.5;stroke-linecap:round;stroke-linejoin:round;stroke-miterlimit:4;stroke-dasharray:1.868, 1.86800000000000010, 1.86800000000000010, 1.86800000000000010;stroke-dashoffset:0;stroke-opacity:1"
           d="m 223.8916,164.7256 c 0.028,-1.701 0.105,-4.014 0.301,-6.531" /><path
           inkscape:connector-curvature="0"
           id="path1042"
           style="fill:none;stroke:#427a81;stroke-width:0.5;stroke-linecap:round;stroke-linejoin:round;stroke-miterlimit:4;stroke-dasharray:1.868, 1.86800000000000010, 1.86800000000000010, 1.86800000000000010, 1.86800000000000010, 1.86800000000000010;stroke-dashoffset:0;stroke-opacity:1"
           d="m 224.2695,157.2617 c 0.382,-4.332 1.126,-9.106 2.567,-12.35 0,0 3.88,-8.467 9.124,-9.177 0,0 5.683,-1.531 9.399,1.802 0,0 6.228,4.699 7.321,13.66 0,0 0.811,8.619 0.724,14.464" /><path
           inkscape:connector-curvature="0"
           id="path1046"
           style="fill:none;stroke:#427a81;stroke-width:0.5;stroke-linecap:round;stroke-linejoin:round;stroke-miterlimit:4;stroke-dasharray:none;stroke-opacity:1"
           d="m 253.3818,166.5928 c -0.012,0.346 -0.027,0.679 -0.048,0.995" /><path
           inkscape:connector-curvature="0"
           id="path1050"
           style="fill:#427a81;fill-opacity:1;fill-rule:nonzero;stroke:none"
           d="m 238.6455,156.7656 c 0,0 0.604,-0.363 1.752,-1.179 1.148,-0.816 2.751,-0.605 3.687,-0.364 0.938,0.243 1.15,1.271 1.15,1.271 -0.273,-0.332 -0.606,-0.393 -1.301,-0.363 -0.694,0.031 -1.238,0.817 -2.688,2.236 -1.454,1.421 -2.6,0.244 -2.6,0.244 0,0 -1.149,1.177 -2.601,-0.244 -1.45,-1.419 -1.994,-2.205 -2.69,-2.236 -0.695,-0.03 -1.027,0.031 -1.299,0.363 0,0 0.211,-1.028 1.148,-1.271 0.937,-0.241 2.539,-0.452 3.688,0.364 1.149,0.816 1.754,1.179 1.754,1.179" /></g></g></g></svg>