<?xml version="1.0" encoding="UTF-8" standalone="no"?>
<!-- Generator: Adobe Illustrator 16.0.0, SVG Export Plug-In . SVG Version: 6.00 Build 0)  -->

<svg
   xmlns:dc="http://purl.org/dc/elements/1.1/"
   xmlns:cc="http://creativecommons.org/ns#"
   xmlns:rdf="http://www.w3.org/1999/02/22-rdf-syntax-ns#"
   xmlns:svg="http://www.w3.org/2000/svg"
   xmlns="http://www.w3.org/2000/svg"
   xmlns:sodipodi="http://sodipodi.sourceforge.net/DTD/sodipodi-0.dtd"
   xmlns:inkscape="http://www.inkscape.org/namespaces/inkscape"
   version="1.1"
   id="Layer_1"
   x="0px"
   y="0px"
   width="256"
   height="256"
   viewBox="0 0 256 256"
   enable-background="new 0 0 512 512"
   xml:space="preserve"
   sodipodi:docname="baby.svg"
   inkscape:version="0.92pre1 unknown"><metadata
     id="metadata125"><rdf:RDF><cc:Work
         rdf:about=""><dc:format>image/svg+xml</dc:format><dc:type
           rdf:resource="http://purl.org/dc/dcmitype/StillImage" /><dc:title></dc:title></cc:Work></rdf:RDF></metadata><defs
     id="defs123" /><sodipodi:namedview
     pagecolor="#ffffff"
     bordercolor="#666666"
     borderopacity="1"
     objecttolerance="10"
     gridtolerance="10"
     guidetolerance="10"
     inkscape:pageopacity="0"
     inkscape:pageshadow="2"
     inkscape:window-width="1855"
     inkscape:window-height="1056"
     id="namedview121"
     showgrid="false"
     fit-margin-top="0"
     fit-margin-left="0"
     fit-margin-right="0"
     fit-margin-bottom="0"
     inkscape:zoom="0.4609375"
     inkscape:cx="-93.603915"
     inkscape:cy="248.091"
     inkscape:window-x="65"
     inkscape:window-y="24"
     inkscape:window-maximized="1"
     inkscape:current-layer="Layer_1" /><g
     id="g118"
     transform="matrix(0.51593972,0,0,0.51593972,-4.0805672,-4.0805672)"
     style="stroke-width:1.93821096"><g
       id="g6"
       style="stroke-width:1.93821096"><g
         id="g4"
         style="stroke-width:1.93821096"><path
           d="M 256.003,7.909 C 118.983,7.909 7.909,118.972 7.909,256 7.909,393.012 118.983,504.091 256.003,504.091 393.015,504.091 504.091,393.012 504.091,256 504.091,118.972 393.015,7.909 256.003,7.909 Z"
           id="path2"
           inkscape:connector-curvature="0"
           style="fill:#4abc96;stroke-width:1.93821096" /></g></g><g
       id="g116"
       style="stroke-width:1.93821096"><g
         id="g12"
         style="stroke-width:1.93821096"><g
           id="g10"
           style="stroke-width:1.93821096"><path
             d="m 435.641,248.772 c 0,-111.035 -80.431,-164.167 -179.643,-164.167 -99.209,0 -179.639,53.132 -179.639,164.167 0,44.001 16.75,41.649 16.75,117.782 0,36.698 -3.891,55.156 -7.922,69.359 44.485,42.249 104.621,68.177 170.815,68.177 67.016,0 127.816,-26.586 172.46,-69.772 -4.542,-18.527 -9.561,-37.794 -9.561,-67.764 10e-4,-54.726 16.74,-73.781 16.74,-117.782 z"
             id="path8"
             inkscape:connector-curvature="0"
             style="fill:#f3f2d9;stroke-width:1.93821096" /></g></g><g
         id="g18"
         style="stroke-width:1.93821096"><g
           id="g16"
           style="stroke-width:1.93821096"><path
             d="m 258.309,118.781 c -66.541,0 -120.673,54.122 -120.673,120.661 0,66.55 54.132,120.683 120.673,120.683 66.538,0 120.672,-54.133 120.672,-120.683 C 378.98,172.903 324.847,118.781 258.309,118.781 Z m 0,234.212 c -62.605,0 -113.529,-50.94 -113.529,-113.55 0,-62.605 50.924,-113.53 113.529,-113.53 62.605,0 113.528,50.924 113.528,113.53 0,62.61 -50.923,113.55 -113.528,113.55 z"
             id="path14"
             inkscape:connector-curvature="0"
             style="fill:#e7e4b9;stroke-width:1.93821096" /></g></g><g
         id="g24"
         style="stroke-width:1.93821096"><g
           id="g22"
           style="stroke-width:1.93821096"><polygon
             points="307.945,339.587 202.471,337.999 257.188,384.796 "
             id="polygon20"
             style="fill:#d7ad8c;stroke-width:1.93821096" /></g></g><g
         id="g30"
         style="stroke-width:1.93821096"><g
           id="g28"
           style="stroke-width:1.93821096"><path
             d="m 315.979,337.081 c -1.165,-1.593 -3.396,-1.934 -4.976,-0.769 -1.859,1.362 -45.487,33.516 -56.827,51.319 -1.055,1.67 -0.561,3.873 1.1,4.934 0.593,0.379 1.263,0.561 1.912,0.561 1.186,0 2.341,-0.588 3.011,-1.654 10.626,-16.687 54.583,-49.083 55.022,-49.402 1.592,-1.176 1.924,-3.407 0.758,-4.989 z"
             id="path26"
             inkscape:connector-curvature="0"
             style="fill:#e7e4b9;stroke-width:1.93821096" /></g></g><g
         id="g36"
         style="stroke-width:1.93821096"><g
           id="g34"
           style="stroke-width:1.93821096"><path
             d="m 190.307,326.795 c -1.592,-1.165 -3.835,-0.819 -4.988,0.77 -1.178,1.593 -0.824,3.824 0.77,4.989 1.321,0.971 104.606,77.288 148.874,158.699 2.335,-0.783 4.654,-1.6 6.957,-2.451 C 297.871,406.264 195.788,330.805 190.307,326.795 Z"
             id="path32"
             inkscape:connector-curvature="0"
             style="fill:#e7e4b9;stroke-width:1.93821096" /></g></g><g
         id="g114"
         style="stroke-width:1.93821096"><g
           id="g42"
           style="stroke-width:1.93821096"><g
             id="g40"
             style="stroke-width:1.93821096"><path
               d="m 258.309,124.716 c -63.374,0 -114.728,51.368 -114.728,114.727 0,63.385 51.354,114.738 114.728,114.738 63.363,0 114.727,-51.353 114.727,-114.738 -10e-4,-63.359 -51.364,-114.727 -114.727,-114.727 z"
               id="path38"
               inkscape:connector-curvature="0"
               style="fill:#e9c29c;stroke-width:1.93821096" /></g></g><g
           id="g56"
           style="stroke-width:1.93821096"><g
             id="g48"
             style="stroke-width:1.93821096"><g
               id="g46"
               style="stroke-width:1.93821096"><path
                 d="m 305.045,208.947 c -12.001,0 -21.727,10.286 -21.727,22.968 0,12.67 9.726,22.945 21.727,22.945 12,0 21.746,-10.275 21.746,-22.945 0,-12.682 -9.746,-22.968 -21.746,-22.968 z"
                 id="path44"
                 inkscape:connector-curvature="0"
                 style="fill:#343433;stroke-width:1.93821096" /></g></g><g
             id="g54"
             style="stroke-width:1.93821096"><g
               id="g52"
               style="stroke-width:1.93821096"><path
                 d="m 311.836,214.024 c -4.779,0 -8.671,4.099 -8.671,9.182 0,5.061 3.892,9.182 8.671,9.182 4.813,0 8.693,-4.121 8.693,-9.182 0,-5.083 -3.881,-9.182 -8.693,-9.182 z"
                 id="path50"
                 inkscape:connector-curvature="0"
                 style="fill:#ffffff;stroke-width:1.93821096" /></g></g></g><g
           id="g70"
           style="stroke-width:1.93821096"><g
             id="g62"
             style="stroke-width:1.93821096"><g
               id="g60"
               style="stroke-width:1.93821096"><path
                 d="m 210.9,208.947 c -12.012,0 -21.736,10.286 -21.736,22.968 0,12.67 9.725,22.945 21.736,22.945 11.999,0 21.728,-10.275 21.728,-22.945 0,-12.682 -9.729,-22.968 -21.728,-22.968 z"
                 id="path58"
                 inkscape:connector-curvature="0"
                 style="fill:#343433;stroke-width:1.93821096" /></g></g><g
             id="g68"
             style="stroke-width:1.93821096"><g
               id="g66"
               style="stroke-width:1.93821096"><path
                 d="m 217.438,214.024 c -4.79,0 -8.682,4.099 -8.682,9.182 0,5.061 3.892,9.182 8.682,9.182 4.815,0 8.706,-4.121 8.706,-9.182 0,-5.083 -3.891,-9.182 -8.706,-9.182 z"
                 id="path64"
                 inkscape:connector-curvature="0"
                 style="fill:#ffffff;stroke-width:1.93821096" /></g></g></g><g
           id="g76"
           style="stroke-width:1.93821096"><g
             id="g74"
             style="stroke-width:1.93821096"><path
               d="m 279.628,135.793 c -7.672,-5.913 -14.014,-4.248 -17.111,-2.715 -5.309,2.605 -8.868,8.462 -8.868,14.561 v 3.528 c -0.187,-0.182 -0.373,-0.363 -0.572,-0.544 -5.307,-5.182 -1.658,-12.309 6.441,-26.66 2.219,-3.94 0.625,-13.006 -0.166,-16.709 -0.418,-1.934 -2.32,-3.154 -4.241,-2.748 -1.924,0.407 -3.154,2.303 -2.747,4.231 1.033,4.868 1.473,10.483 0.935,11.72 -8.198,14.544 -14.683,26.034 -5.199,35.281 1.791,1.747 3.647,3.204 5.55,4.374 v 6.396 c 0,1.978 1.604,3.571 3.57,3.571 1.968,0 3.572,-1.594 3.572,-3.571 V 163.1 c 4.527,1.056 9.33,0.67 14.34,-1.17 5.232,-1.917 9.023,-6.642 9.901,-12.313 0.824,-5.429 -1.185,-10.594 -5.405,-13.824 z m -1.661,12.741 c -0.473,3.104 -2.504,5.671 -5.286,6.698 -4.351,1.583 -8.219,1.781 -11.89,0.484 v -8.077 c 0,-3.33 2.055,-6.769 4.88,-8.16 2.813,-1.378 6.132,-0.708 9.615,1.968 3.043,2.345 2.89,5.741 2.681,7.087 z"
               id="path72"
               inkscape:connector-curvature="0"
               style="fill:#a46434;stroke-width:1.93821096" /></g></g><g
           id="g82"
           style="stroke-width:1.93821096"><g
             id="g80"
             style="stroke-width:1.93821096"><path
               d="m 259.57,266.629 c -14.46,0 -26.176,11.714 -26.176,26.166 0,14.462 11.716,26.176 26.176,26.176 14.451,0 26.167,-11.714 26.167,-26.176 0,-14.452 -11.716,-26.166 -26.167,-26.166 z"
               id="path78"
               inkscape:connector-curvature="0"
               style="fill:#49a0ae;stroke-width:1.93821096" /></g></g><g
           id="g88"
           style="stroke-width:1.93821096"><g
             id="g86"
             style="stroke-width:1.93821096"><path
               d="m 259.57,278.52 c -7.889,0 -14.273,6.395 -14.273,14.274 0,7.885 6.385,14.275 14.273,14.275 7.881,0 14.277,-6.39 14.277,-14.275 0.001,-7.879 -6.396,-14.274 -14.277,-14.274 z"
               id="path84"
               inkscape:connector-curvature="0"
               style="fill:#3d929a;stroke-width:1.93821096" /></g></g><g
           id="g94"
           style="stroke-width:1.93821096"><g
             id="g92"
             style="stroke-width:1.93821096"><path
               d="m 259.57,284.069 c -4.813,0 -8.723,3.907 -8.723,8.726 0,4.813 3.91,8.736 8.723,8.736 4.813,0 8.728,-3.923 8.728,-8.736 0,-4.819 -3.914,-8.726 -8.728,-8.726 z"
               id="path90"
               inkscape:connector-curvature="0"
               style="fill:#357180;stroke-width:1.93821096" /></g></g><g
           id="g100"
           style="stroke-width:1.93821096"><g
             id="g98"
             style="stroke-width:1.93821096"><path
               d="m 271,301.531 c -1.518,-3.472 -3.087,-7.06 -4.428,-10.742 -0.45,-1.23 -1.825,-1.873 -3.057,-1.423 -1.23,0.451 -1.868,1.813 -1.428,3.055 1.396,3.813 3.001,7.484 4.56,11.022 3.551,8.122 6.902,15.786 4.595,19.319 -1.451,2.22 -5.473,3.341 -11.968,3.341 -6.285,0 -10.153,-1.006 -11.495,-3 -1.932,-2.879 0.705,-9.335 3.494,-16.176 1.814,-4.434 3.857,-9.451 5.244,-14.714 0.34,-1.275 -0.418,-2.572 -1.693,-2.907 -1.253,-0.335 -2.571,0.418 -2.912,1.692 -1.298,4.962 -3.286,9.83 -5.044,14.132 -3.56,8.748 -6.384,15.649 -3.034,20.632 2.342,3.478 7.242,5.099 15.44,5.099 8.429,0 13.494,-1.748 15.944,-5.495 3.728,-5.681 0.048,-14.094 -4.218,-23.835 z"
               id="path96"
               inkscape:connector-curvature="0"
               style="fill:#357180;stroke-width:1.93821096" /></g></g><g
           id="g106"
           style="stroke-width:1.93821096"><g
             id="g104"
             style="stroke-width:1.93821096"><path
               d="m 363.86,216.651 c -10.229,0 -18.521,8.791 -18.521,19.632 0,10.841 8.293,19.632 18.521,19.632 10.223,0 18.516,-8.792 18.516,-19.632 0,-10.84 -8.293,-19.632 -18.516,-19.632 z"
               id="path102"
               inkscape:connector-curvature="0"
               style="fill:#e9c29c;stroke-width:1.93821096" /></g></g><g
           id="g112"
           style="stroke-width:1.93821096"><g
             id="g110"
             style="stroke-width:1.93821096"><path
               d="m 152.888,216.651 c -10.23,0 -18.512,8.791 -18.512,19.632 0,10.841 8.281,19.632 18.512,19.632 10.221,0 18.514,-8.792 18.514,-19.632 0,-10.84 -8.294,-19.632 -18.514,-19.632 z"
               id="path108"
               inkscape:connector-curvature="0"
               style="fill:#e9c29c;stroke-width:1.93821096" /></g></g></g></g></g></svg>